<?xml version="1.0" standalone="no"?><!DOCTYPE svg PUBLIC "-//W3C//DTD SVG 1.1//EN" "http://www.w3.org/Graphics/SVG/1.1/DTD/svg11.dtd"><svg t="1662462941339" class="icon" viewBox="0 0 1024 1024" version="1.1" xmlns="http://www.w3.org/2000/svg" p-id="2413" xmlns:xlink="http://www.w3.org/1999/xlink" width="200" height="200"><path d="M511.955486 512.020466l178.700985 0 0 178.615027L511.955486 690.635493 511.955486 512.020466zM511.955486 333.275479 333.340459 333.275479l0 178.744987 178.615027 0L511.955486 333.275479zM958.70846 243.968477l0 536.105001c0 98.599645-79.971379 178.700985-178.700985 178.700985L243.903497 958.774463c-98.642624 0-178.61298-80.101339-178.61298-178.700985L65.290517 243.968477c0-98.772584 79.969333-178.744987 178.61298-178.744987l536.105001 0C878.73708 65.22349 958.70846 145.19487 958.70846 243.968477zM869.401458 288.599977c0-73.994248-60.075237-134.069485-134.069485-134.069485l-44.675502 0 0 178.744987L511.955486 333.275479 511.955486 154.530492 333.340459 154.530492l0 178.744987L154.55147 333.275479l0 178.744987 178.788989 0 0 178.615027L154.55147 690.635493l0 44.76146c0 73.994248 59.989279 133.983527 134.115534 133.983527l44.673455 0L333.340459 690.635493l178.615027 0 0 178.744987 178.700985 0L690.656471 690.635493l178.744987 0L869.401458 512.020466 690.656471 512.020466 690.656471 333.275479l178.744987 0L869.401458 288.599977z" p-id="2414"></path></svg>